<svg xmlns="http://www.w3.org/2000/svg" width="46" height="46" viewBox="0 0 46 46">
    <g fill="none" fill-rule="evenodd" stroke="#3E4348" stroke-width="3" transform="translate(2 2)">
        <circle cx="21" cy="21" r="21"/>
        <path d="M20.383 41.991C9.071 41.665 0 32.391 0 21c0-.194.003-.387.008-.58 1.537.147 4.324.48 4.455 1.56.181 1.495 0 3.364 1.272 3.924 1.273.56 1.637-2.242 2.727-1.494 1.091.747 4 1.466 4 2.788 0 1.32-.545 3.377 0 3.75.545.374 2.726 2.99 2.726 3.363.001.374.769 2.274.54 3-.19.603-1.148 2.473-2.077 3.323 2.106.81 4.37 1.286 6.732 1.357h0zM12.326 1.87C14.97.67 17.907 0 21 0c8.193 0 15.29 4.692 18.752 11.536.077 1.82.064 3.377.466 3.94 2.046 2.864-4.986 4.834-3.918 9.165.47 1.911-4.677 1.305-5.934 3.094-1.258 1.788-4.332.587-5.045.243-.712-.344-3.442.802-3.204-1.146s1.898-2.062 3.68-2.864c1.78-.801 4.347-3.465 3.085-3.813-5.94-1.637-7.967-7.372-7.967-7.372-.356-.069-.266-4.054-1.809-4.168-1.544-.115-2.375.458-4.63 0s-1.78-1.948-2.136-5.156c-.08-.72-.076-1.226-.014-1.59zm29.672 18.844L42 21c0 11.528-9.29 20.887-20.791 20.999 11.388-.115 20.636-9.593 20.79-21.286h0z"/>
    </g>
</svg>
