<svg xmlns="http://www.w3.org/2000/svg" width="15" height="15" viewBox="0 0 15 15">
    <g fill="#FFF">
        <path d="M14.082 4.162c-.048-.726-.145-1.258-.339-1.694-.193-.484-.435-.871-.822-1.258-.388-.387-.775-.63-1.258-.823-.436-.194-.968-.29-1.694-.339C9.194 0 8.952 0 7.065 0s-2.13 0-2.903.048c-.726.049-1.258.145-1.694.34-.484.193-.871.435-1.258.822-.387.387-.63.774-.823 1.258-.194.436-.29.968-.339 1.694C0 4.888 0 5.13 0 7.065c0 1.936 0 2.13.048 2.904.049.726.145 1.258.34 1.694.193.483.435.87.822 1.258.387.387.774.629 1.258.822.436.194.968.29 1.694.34.726.047.968.047 2.903.047 1.936 0 2.13 0 2.904-.048.726-.048 1.258-.145 1.694-.339.483-.193.87-.435 1.258-.822.387-.388.629-.775.822-1.258.194-.436.29-.968.34-1.694.047-.726.047-.968.047-2.904 0-1.935 0-2.13-.048-2.903zM12.824 9.92c-.048.678-.145 1.065-.242 1.307-.145.339-.29.58-.533.823-.241.242-.483.387-.822.532-.242.097-.63.194-1.307.242-.725.048-.968.048-2.855.048s-2.08 0-2.855-.048c-.677-.048-1.065-.145-1.306-.242-.34-.145-.581-.29-.823-.533-.242-.241-.387-.483-.533-.822-.096-.242-.193-.63-.241-1.307-.049-.725-.049-.968-.049-2.855s0-2.08.049-2.855c.048-.677.145-1.065.241-1.306.146-.34.29-.581.533-.823.242-.242.484-.387.823-.533.241-.096.629-.193 1.306-.241.775-.049.968-.049 2.855-.049s2.08 0 2.855.049c.678.048 1.065.145 1.307.241.339.146.58.291.823.533.242.242.387.484.532.823.097.241.194.629.242 1.306.048.726.048.968.048 2.855s0 2.081-.048 2.855z"/>
        <path d="M7.065 3.436c-1.984 0-3.58 1.597-3.58 3.58 0 1.985 1.596 3.582 3.58 3.582S10.646 9 10.646 7.017 9.05 3.436 7.066 3.436zm0 5.904c-1.306 0-2.323-1.065-2.323-2.323s1.065-2.323 2.323-2.323 2.323 1.065 2.323 2.323S8.372 9.34 7.065 9.34zm3.775-6.872c-.436 0-.823.387-.823.822 0 .436.339.823.823.823.435 0 .822-.339.822-.823 0-.483-.387-.87-.822-.822z"/>
    </g>
</svg>
