<svg xmlns="http://www.w3.org/2000/svg" width="40" height="46" viewBox="0 0 40 46">
    <g fill="none" fill-rule="evenodd" stroke="#3E4348" stroke-width="3" transform="translate(2 2)">
        <path d="M3.846 0h10.308c1.337 0 1.822.14 2.311.4.49.262.873.646 1.134 1.135.262.489.401.974.401 2.31v34.31c0 1.336-.14 1.821-.4 2.31-.262.49-.646.873-1.135 1.134-.489.262-.974.401-2.31.401H3.844c-1.336 0-1.821-.14-2.31-.4-.49-.262-.873-.646-1.134-1.135-.262-.489-.401-.974-.401-2.31V3.844c0-1.336.14-1.821.4-2.31.262-.49.646-.873 1.135-1.134C2.024.139 2.509 0 3.845 0z"/>
        <circle cx="9.142" cy="9.926" r="3.5"/>
        <path stroke-linecap="round" d="M7 35.5L11 35.5M7 31.5L11 31.5"/>
        <path stroke-linecap="round" d="M29.5 0L29.5 42" transform="rotate(-19 29.5 21)"/>
    </g>
</svg>
