<svg xmlns="http://www.w3.org/2000/svg" width="14" height="14" viewBox="0 0 14 14">
    <path fill="#FFF" d="M10.916 0h-8.75C.982 0 0 .982 0 2.167v8.669c0 1.226.981 2.207 2.167 2.207h8.708c1.186 0 2.167-.98 2.167-2.166v-8.71C13.082.981 12.102 0 10.916 0zm-6.94 10.874H2.03V4.95h1.947v5.924zM3.003 4.14c-.69 0-1.096-.447-1.096-1.015 0-.567.447-1.014 1.096-1.014.69 0 1.095.446 1.095 1.014.041.568-.405 1.015-1.095 1.015zm8.074 6.735H9.13V7.71c0-.811-.284-1.339-1.015-1.339-.527 0-.852.366-1.014.73-.054.158-.081.322-.081.488v3.286H5.072s.04-5.356 0-5.924H7.02v.852c.243-.406.73-.973 1.785-.973 1.299 0 2.272.852 2.272 2.678v3.367z"/>
</svg>
