<svg xmlns="http://www.w3.org/2000/svg" width="170" height="12" viewBox="0 0 170 12">
    <g fill="#3E4348" fill-rule="evenodd">
        <path fill-rule="nonzero" d="M25.84 11V1.2h2.24V11h-2.24zm11.38-4.48V1.2h2.24V11h-1.68L34 5.68V11h-2.24V1.2h1.68l3.78 5.32zM48.348 11h-2.856L42.3 1.2h2.45l2.17 7.21 2.17-7.21h2.45L48.348 11zm8.272-3.892v1.736h3.92V11h-6.16V1.2h6.09v2.156h-3.85V4.98h3.5v2.128h-3.5zm10.61 4.088c-2.002 0-3.36-.924-3.92-2.422l1.932-1.12c.392.91 1.078 1.358 2.058 1.358.882 0 1.33-.266 1.33-.798 0-.294-.14-.518-.434-.672-.28-.168-.812-.364-1.596-.574-.826-.224-1.386-.476-1.988-.924-.574-.462-.896-1.162-.896-2.058 0-.91.322-1.624.966-2.17.658-.546 1.428-.812 2.324-.812 1.61 0 2.87.77 3.584 2.212L68.7 4.322c-.35-.742-.84-1.134-1.694-1.134-.672 0-1.05.336-1.05.742 0 .238.112.448.336.63.238.182.714.378 1.428.588l.91.294c.21.07.49.196.812.378.336.168.588.35.756.546.35.378.672 1.022.672 1.82 0 .938-.336 1.666-1.008 2.212-.672.532-1.554.798-2.632.798zM72.94 1.2h7.28v2.156H77.7V11h-2.24V3.356h-2.52V1.2zm17.82 0H93V11h-2.24V5.302L88.226 9.46h-.252L85.44 5.302V11H83.2V1.2h2.24l2.66 4.354L90.76 1.2zm8.16 5.908v1.736h3.92V11h-6.16V1.2h6.09v2.156h-3.85V4.98h3.5v2.128h-3.5zm12.64-.588V1.2h2.24V11h-1.68l-3.78-5.32V11h-2.24V1.2h1.68l3.78 5.32zm5.22-5.32h7.28v2.156h-2.52V11h-2.24V3.356h-2.52V1.2zm10.918 9.604c-.518.518-1.358.518-1.876 0-.518-.518-.518-1.358 0-1.876.518-.518 1.358-.518 1.876 0 .518.518.518 1.358 0 1.876zM137 4h1.6v7H137V6.93l-1.81 2.97h-.18l-1.81-2.97V11h-1.6V4h1.6l1.9 3.11L137 4zm9.72 6.09c-.71.7-1.57 1.05-2.58 1.05s-1.87-.35-2.58-1.05c-.71-.7-1.06-1.56-1.06-2.59 0-1.03.35-1.89 1.06-2.59.71-.7 1.57-1.05 2.58-1.05s1.87.35 2.58 1.05c.71.7 1.06 1.56 1.06 2.59 0 1.03-.35 1.89-1.06 2.59zM142.68 9c.39.39.88.58 1.46.58s1.06-.19 1.45-.58c.39-.39.59-.89.59-1.5s-.2-1.11-.59-1.5c-.39-.39-.87-.58-1.45-.58s-1.07.19-1.46.58c-.39.39-.58.89-.58 1.5s.19 1.11.58 1.5zm10.9-1.2V4h1.6v7h-1.2l-2.7-3.8V11h-1.6V4h1.2l2.7 3.8zm5.4.42v1.24h2.8V11h-4.4V4h4.35v1.54h-2.75V6.7h2.5v1.52h-2.5zM167.56 4h1.82l-2.35 4.31V11h-1.6V8.31L163.08 4h1.82l1.33 2.7 1.33-2.7zM8.823 2.37l1.91 1.453C11.41 2.931 12.458 2.4 13.6 2.4c1.988 0 3.6 1.612 3.6 3.6s-1.612 3.6-3.6 3.6c-1.019 0-1.964-.422-2.643-1.155l-1.76 1.63C10.291 11.26 11.86 12 13.6 12c3.314 0 6-2.686 6-6s-2.686-6-6-6c-1.95 0-3.681.93-4.777 2.37z"/>
        <path d="M6.4 12c-3.314 0-6-2.686-6-6s2.686-6 6-6 6 2.686 6 6-2.686 6-6 6z"/>
    </g>
</svg>
