<svg xmlns="http://www.w3.org/2000/svg" width="15" height="11" viewBox="0 0 15 11">
    <path fill="#FFF" d="M9.877 6.598L7.604 8.416c-.195.157-.512.157-.707 0L4.623 6.598c-.196-.156-.513-.156-.709 0L0 9.723v.246c0 .398.408.906.906.906h12.688c.498 0 .906-.508.906-.906v-.246l-3.914-3.126c-.196-.155-.513-.155-.709.001zm1.996-1.03l2.274 1.82c.194.156.353.08.353-.17V3.352c0-.25-.159-.326-.354-.17l-2.273 1.82c-.196.155-.196.41 0 .566zM.906 0C.408 0 0 .508 0 .906l6.859 5.46c.196.155.513.156.71.001L14.5.907c0-.399-.408-.907-.906-.907H.906zM0 3.353v3.864c0 .25.159.327.354.17L2.628 5.57c.196-.157.196-.41 0-.566L.354 3.183C.16 3.028 0 3.104 0 3.354z"/>
</svg>
