<svg xmlns="http://www.w3.org/2000/svg" width="51" height="37" viewBox="0 0 51 37">
    <g fill="none">
        <path stroke="#3E4348" stroke-width="3" d="M44 27H3c-1.657 0-3-1.343-3-3V3c0-1.657 1.343-3 3-3h41c1.657 0 3 1.343 3 3v21c0 1.657-1.343 3-3 3z" transform="translate(2 2)"/>
        <path stroke="#3E4348" stroke-width="3" d="M23.5 18.5c-2.786 0-5-2.214-5-5s2.214-5 5-5 5 2.214 5 5-2.214 5-5 5z" transform="translate(2 2)"/>
        <path fill="#3E4348" d="M37 12h1c.828 0 1.5.672 1.5 1.5S38.828 15 38 15h-1c-.828 0-1.5-.672-1.5-1.5S36.172 12 37 12zM9 12h1c.828 0 1.5.672 1.5 1.5S10.828 15 10 15H9c-.828 0-1.5-.672-1.5-1.5S8.172 12 9 12zM1.5 31.6h44c.828 0 1.5.672 1.5 1.5s-.672 1.5-1.5 1.5h-44c-.828 0-1.5-.672-1.5-1.5s.672-1.5 1.5-1.5z" transform="translate(2 2)"/>
    </g>
</svg>
