<svg xmlns="http://www.w3.org/2000/svg" width="16" height="16" viewBox="0 0 16 16">
    <g fill="none" stroke="#5174D1" stroke-width="2">
        <path d="M2.591 0C1.162 0 0 1.162 0 2.591h0c0 1.43 1.162 2.592 2.591 2.592h2.592V2.59C5.183 1.162 4.02 0 2.59 0zM11.409 0c-1.43 0-2.592 1.162-2.592 2.591v2.592h2.592C12.838 5.183 14 4.02 14 2.59h0C14 1.162 12.838 0 11.409 0zM0 11.409h0C0 12.838 1.162 14 2.591 14c1.43 0 2.592-1.162 2.592-2.591V8.817H2.59C1.162 8.817 0 9.98 0 11.41zM11.409 8.817H8.817v2.592C8.817 12.838 9.98 14 11.41 14 12.838 14 14 12.838 14 11.409h0c0-1.43-1.162-2.592-2.591-2.592z" transform="translate(1 1)"/>
    </g>
</svg>
