<svg xmlns="http://www.w3.org/2000/svg" width="15" height="12" viewBox="0 0 15 12">
    <path fill="#FFF" d="M14.13 1.363c-.527.221-1.057.398-1.672.442.615-.353 1.057-.925 1.278-1.584-.572.353-1.19.571-1.85.703C11.405.354 10.61 0 9.817 0 8.234 0 6.912 1.278 6.912 2.906c0 .22.044.442.088.66-2.42-.133-4.534-1.278-5.986-3.039C.748.97.615 1.452.615 1.98c0 1.013.528 1.893 1.278 2.42-.483 0-.924-.132-1.322-.353v.044c0 1.408 1.013 2.553 2.332 2.818-.265.044-.483.088-.748.088-.176 0-.353 0-.527-.044.354 1.145 1.452 1.982 2.686 2.026-.97.792-2.244 1.233-3.61 1.233-.221 0-.483 0-.704-.044 1.322.864 2.867 1.323 4.446 1.322 5.327 0 8.233-4.402 8.233-8.232v-.354c.571-.485 1.057-.968 1.451-1.54z"/>
</svg>
